<?xml version="1.0" encoding="utf-8"?>
<!-- Generator: Adobe Illustrator 23.0.1, SVG Export Plug-In . SVG Version: 6.00 Build 0)  -->
<svg version="1.1" xmlns="http://www.w3.org/2000/svg" xmlns:xlink="http://www.w3.org/1999/xlink" x="0px" y="0px"
	 viewBox="0 0 512 512" style="enable-background:new 0 0 512 512;" xml:space="preserve">
<style type="text/css">
	.st0{fill:#333333;}
</style>
<g id="Layer_1">
</g>
<g id="Layer_2">
	<g>
		<path class="st0" d="M51.3,161.27v189.46c0,14.76,7.63,27.98,20.42,35.36c6.39,3.69,13.4,5.53,20.4,5.53
			c7.01,0,14.02-1.85,20.41-5.54l102.44-59.14v23.78c0,14.76,7.63,27.98,20.42,35.36c6.39,3.69,13.4,5.53,20.41,5.53
			c7.01,0,14.02-1.85,20.41-5.54l164.08-94.73c0,0,0,0,0,0c12.78-7.38,20.41-20.6,20.41-35.35s-7.63-27.97-20.41-35.36
			l-164.08-94.73c-12.78-7.38-28.04-7.38-40.82-0.01c-12.79,7.38-20.42,20.6-20.42,35.36v23.78l-102.44-59.13
			c-12.78-7.38-28.04-7.38-40.82-0.01C58.93,133.29,51.3,146.51,51.3,161.27z M246.97,161.27c0-4.6,3.09-6.88,4.42-7.65
			c0.81-0.46,2.42-1.21,4.45-1.21c1.31,0,2.81,0.31,4.37,1.22l164.08,94.73c3.99,2.3,4.42,6.11,4.42,7.65s-0.43,5.34-4.42,7.65l0,0
			l-164.08,94.73c-3.98,2.3-7.5,0.77-8.82,0c-1.33-0.77-4.42-3.04-4.42-7.65v-51.49v-86.48V161.27z M83.3,161.27
			c0-4.6,3.09-6.88,4.41-7.65c0.8-0.46,2.41-1.21,4.45-1.21c1.31,0,2.81,0.31,4.37,1.21L214.97,222v68L96.53,358.38
			c-3.98,2.3-7.49,0.77-8.81,0c-1.33-0.77-4.41-3.04-4.41-7.65V161.27z"/>
	</g>
</g>
</svg>
