<?xml version="1.0" encoding="utf-8"?>
<!-- Generator: Adobe Illustrator 23.0.1, SVG Export Plug-In . SVG Version: 6.00 Build 0)  -->
<svg version="1.1" xmlns="http://www.w3.org/2000/svg" xmlns:xlink="http://www.w3.org/1999/xlink" x="0px" y="0px"
	 viewBox="0 0 512 512" style="enable-background:new 0 0 512 512;" xml:space="preserve">
<style type="text/css">
	.st0{fill:#333333;}
</style>
<g id="Layer_1">
</g>
<g id="Layer_2">
	<g>
		<path class="st0" d="M316.91,176.11c-2.59-0.39-5.17-0.76-7.75-1.11c-0.48-0.06-0.96-0.13-1.45-0.19
			c-2.56-0.33-5.11-0.64-7.66-0.93c-0.44-0.05-0.88-0.09-1.32-0.14c-2.64-0.28-5.27-0.55-7.91-0.78c-0.19-0.02-0.37-0.03-0.56-0.05
			c-2.59-0.22-5.18-0.42-7.77-0.59c-0.32-0.02-0.63-0.05-0.95-0.07c-2.58-0.17-5.16-0.3-7.74-0.42c-0.47-0.02-0.95-0.04-1.42-0.06
			c-2.54-0.11-5.08-0.19-7.61-0.24c-0.46-0.01-0.92-0.02-1.37-0.03c-2.6-0.05-5.2-0.08-7.8-0.07c-0.26,0-0.53,0-0.79,0.01
			c-2.59,0.01-5.19,0.04-7.78,0.1c-0.22,0.01-0.44,0.01-0.67,0.01c-2.63,0.06-5.26,0.16-7.89,0.28c-0.43,0.02-0.85,0.04-1.28,0.06
			c-2.56,0.12-5.13,0.27-7.69,0.44c-0.45,0.03-0.9,0.06-1.35,0.09c-2.61,0.18-5.21,0.39-7.82,0.62c-0.3,0.03-0.59,0.06-0.89,0.08
			c-2.68,0.25-5.37,0.52-8.06,0.82c-0.09,0.01-0.17,0.02-0.26,0.03c-2.7,0.3-5.4,0.64-8.1,1c-0.38,0.05-0.76,0.1-1.15,0.15
			c-2.6,0.35-5.2,0.73-7.8,1.14c-0.45,0.07-0.9,0.14-1.34,0.21c-2.61,0.41-5.22,0.85-7.83,1.31c-0.36,0.06-0.73,0.13-1.09,0.2
			c-2.73,0.49-5.47,1.01-8.21,1.55c0,0-0.01,0-0.01,0c0,0,0,0,0,0c0,0,0,0,0,0c-4.46,0.89-9.09,1.89-13.77,2.97
			c-0.24,0.05-0.47,0.11-0.7,0.18c-25,7.01-49.42,31-56.8,55.79c-0.07,0.24-0.14,0.48-0.2,0.73c-14.75,59.73-14.75,117.8,0,177.52
			c0.06,0.24,0.13,0.49,0.2,0.73c7.38,24.8,31.8,48.78,56.8,55.79c0.23,0.06,0.45,0.12,0.68,0.18c31.7,7.4,62.95,11.09,94.21,11.09
			s62.51-3.7,94.21-11.09c0.23-0.05,0.46-0.11,0.68-0.18c25-7.01,49.42-31,56.8-55.79c0.07-0.24,0.14-0.48,0.2-0.73
			c14.75-59.73,14.75-117.8,0-177.52c-0.06-0.24-0.13-0.48-0.2-0.72c-7.38-24.8-31.79-48.78-56.8-55.79
			c-0.23-0.07-0.47-0.13-0.7-0.18c-0.3-0.07-0.6-0.14-0.91-0.21v-61.54c0-24.92-9.71-48.35-27.32-65.95
			C304.35,37.2,280.92,27.5,256,27.5c-51.43,0-93.28,41.85-93.28,93.28c0,8.84,7.16,16,16,16s16-7.16,16-16
			c0-33.79,27.49-61.28,61.28-61.28c16.37,0,31.76,6.37,43.33,17.96c11.58,11.57,17.95,26.95,17.95,43.32v55.38
			C317.16,176.14,317.03,176.13,316.91,176.11z M376.92,247.29c13.35,54.29,13.35,107.09,0,161.38
			c-4.4,14.21-19.99,29.51-34.36,33.69c-58.24,13.53-114.88,13.53-173.12,0c-14.36-4.18-29.96-19.48-34.36-33.69
			c-13.35-54.29-13.34-107.09,0-161.38c4.39-14.21,19.99-29.5,34.35-33.69c4.22-0.98,8.4-1.88,12.43-2.68
			c9.91-1.98,19.77-3.57,29.6-4.76c39.62-4.82,78.71-3.23,118.7,4.76c4.01,0.8,8.19,1.7,12.41,2.67
			C356.93,217.79,372.52,233.08,376.92,247.29z"/>
		<path class="st0" d="M256,232.33c-36.32,0-65.87,29.55-65.87,65.87c0,20.5,9.59,39.69,25.53,52.06v33.04
			c0,22.24,18.1,40.34,40.34,40.34s40.34-18.1,40.34-40.34v-33.04c15.95-12.37,25.53-31.56,25.53-52.06
			C321.87,261.88,292.32,232.33,256,232.33z M272.52,327.77c-5.05,2.83-8.18,8.17-8.18,13.96v41.58c0,4.6-3.74,8.34-8.34,8.34
			s-8.34-3.74-8.34-8.34v-41.58c0-5.79-3.13-11.13-8.18-13.96c-10.7-6-17.35-17.33-17.35-29.57c0-18.68,15.19-33.87,33.87-33.87
			s33.87,15.2,33.87,33.87C289.87,310.44,283.22,321.77,272.52,327.77z"/>
	</g>
</g>
</svg>
