<?xml version="1.0" encoding="utf-8"?>
<!-- Generator: Adobe Illustrator 23.0.1, SVG Export Plug-In . SVG Version: 6.00 Build 0)  -->
<svg version="1.1" xmlns="http://www.w3.org/2000/svg" xmlns:xlink="http://www.w3.org/1999/xlink" x="0px" y="0px"
	 viewBox="0 0 512 512" style="enable-background:new 0 0 512 512;" xml:space="preserve">
<style type="text/css">
	.st0{fill:#333333;}
</style>
<g id="Layer_1">
</g>
<g id="Layer_2">
	<g>
		<path class="st0" d="M474.98,413.85v-7.81v-62.45v-97.12c0-58.49-22.78-113.48-64.14-154.84C369.48,50.28,314.49,27.5,256,27.5
			S142.52,50.28,101.16,91.64C59.8,133,37.02,187.99,37.02,246.48v97.12v62.45v7.81c0,2.24,0.46,4.37,1.3,6.31
			c6.67,36.54,38.72,64.34,77.16,64.34c43.26,0,78.45-35.19,78.45-78.45s-35.19-78.45-78.45-78.45H69.02v-81.12
			C69.02,143.38,152.9,59.5,256,59.5s186.98,83.88,186.98,186.98v81.12h-46.45c-43.26,0-78.45,35.19-78.45,78.45
			s35.19,78.45,78.45,78.45c38.44,0,70.49-27.8,77.16-64.34C474.51,418.23,474.98,416.09,474.98,413.85z M115.48,359.59
			c25.61,0,46.45,20.84,46.45,46.45s-20.84,46.45-46.45,46.45c-25.62,0-46.45-20.84-46.45-46.45v-46.45H115.48z M396.52,452.5
			c-25.61,0-46.45-20.84-46.45-46.45s20.84-46.45,46.45-46.45h46.45v46.45C442.98,431.66,422.14,452.5,396.52,452.5z"/>
	</g>
</g>
</svg>
