<?xml version="1.0" encoding="utf-8"?>
<!-- Generator: Adobe Illustrator 23.0.1, SVG Export Plug-In . SVG Version: 6.00 Build 0)  -->
<svg version="1.1" xmlns="http://www.w3.org/2000/svg" xmlns:xlink="http://www.w3.org/1999/xlink" x="0px" y="0px"
	 viewBox="0 0 512 512" style="enable-background:new 0 0 512 512;" xml:space="preserve">
<style type="text/css">
	.st0{fill:#333333;}
</style>
<g id="Layer_1">
</g>
<g id="Layer_2">
	<g>
		<path class="st0" d="M104.12,416.75c0.06,0.24,0.13,0.49,0.2,0.73c7.38,24.8,31.8,48.78,56.8,55.79c0.23,0.06,0.45,0.12,0.68,0.18
			c31.7,7.4,62.95,11.09,94.21,11.09s62.51-3.7,94.21-11.09c0.23-0.05,0.46-0.11,0.68-0.18c25-7.01,49.42-31,56.8-55.79
			c0.07-0.24,0.14-0.48,0.2-0.73c14.75-59.73,14.75-117.8,0-177.52c-0.06-0.24-0.13-0.48-0.2-0.72
			c-7.38-24.8-31.79-48.78-56.8-55.79c-0.23-0.07-0.47-0.13-0.7-0.18c-0.3-0.07-0.6-0.14-0.91-0.21v-61.54
			c0-24.92-9.71-48.35-27.32-65.95C304.35,37.2,280.92,27.5,256,27.5c-51.43,0-93.28,41.85-93.28,93.28v61.54
			c-0.3,0.07-0.6,0.14-0.91,0.21c-0.24,0.05-0.47,0.11-0.7,0.18c-25,7.01-49.42,31-56.8,55.79c-0.07,0.24-0.14,0.48-0.2,0.73
			C89.36,298.95,89.36,357.02,104.12,416.75z M194.72,120.78c0-33.79,27.49-61.28,61.28-61.28c16.37,0,31.76,6.37,43.33,17.96
			c11.58,11.57,17.95,26.95,17.95,43.32v55.38c-0.14-0.02-0.27-0.04-0.41-0.06c-2.24-0.34-4.48-0.66-6.71-0.97
			c-0.51-0.07-1.01-0.13-1.52-0.2c-1.97-0.26-3.95-0.51-5.92-0.74c-0.38-0.04-0.75-0.09-1.13-0.14c-2.24-0.26-4.47-0.49-6.7-0.71
			c-0.53-0.05-1.05-0.1-1.58-0.15c-2.03-0.19-4.06-0.37-6.09-0.53c-0.28-0.02-0.56-0.05-0.85-0.07c-2.25-0.17-4.49-0.32-6.73-0.46
			c-0.53-0.03-1.06-0.06-1.59-0.09c-2.14-0.12-4.28-0.23-6.42-0.31c-0.15-0.01-0.29-0.01-0.44-0.02c-2.27-0.09-4.53-0.15-6.8-0.2
			c-0.52-0.01-1.04-0.02-1.56-0.03c-4.56-0.08-9.12-0.08-13.68,0c-0.51,0.01-1.02,0.02-1.52,0.03c-2.28,0.05-4.56,0.11-6.84,0.2
			c-0.11,0-0.22,0.01-0.33,0.01c-2.19,0.09-4.37,0.19-6.56,0.32c-0.5,0.03-0.99,0.06-1.49,0.08c-2.27,0.14-4.54,0.29-6.82,0.46
			c-0.23,0.02-0.46,0.04-0.7,0.06c-2.09,0.16-4.19,0.35-6.29,0.55c-0.48,0.05-0.96,0.09-1.44,0.14c-2.27,0.22-4.54,0.46-6.81,0.72
			c-0.32,0.04-0.64,0.08-0.97,0.12c-2.04,0.24-4.08,0.5-6.12,0.77c-0.46,0.06-0.92,0.12-1.39,0.18c-2.26,0.31-4.53,0.63-6.79,0.98
			c-0.13,0.02-0.25,0.04-0.38,0.06V120.78z M135.08,247.29c4.39-14.21,19.99-29.5,34.35-33.69c4.22-0.98,8.4-1.88,12.43-2.68
			c9.91-1.98,19.77-3.57,29.6-4.76c39.62-4.82,78.71-3.23,118.7,4.76c4.01,0.8,8.19,1.7,12.41,2.67
			c14.36,4.19,29.95,19.48,34.35,33.69c13.35,54.29,13.35,107.09,0,161.38c-4.4,14.21-19.99,29.51-34.36,33.69
			c-58.24,13.53-114.88,13.53-173.12,0c-14.36-4.18-29.96-19.48-34.36-33.69C121.74,354.38,121.74,301.58,135.08,247.29z"/>
		<path class="st0" d="M215.66,350.26v33.04c0,22.24,18.1,40.34,40.34,40.34s40.34-18.1,40.34-40.34v-33.04
			c15.95-12.37,25.53-31.56,25.53-52.06c0-36.32-29.55-65.87-65.87-65.87c-36.32,0-65.87,29.55-65.87,65.87
			C190.13,318.7,199.71,337.89,215.66,350.26z M256,264.33c18.68,0,33.87,15.2,33.87,33.87c0,12.24-6.65,23.57-17.35,29.57
			c-5.05,2.83-8.18,8.17-8.18,13.96v41.58c0,4.6-3.74,8.34-8.34,8.34s-8.34-3.74-8.34-8.34v-41.58c0-5.79-3.13-11.13-8.18-13.96
			c-10.7-6-17.35-17.33-17.35-29.57C222.13,279.52,237.32,264.33,256,264.33z"/>
	</g>
</g>
</svg>
