<?xml version="1.0" encoding="utf-8"?>
<!-- Generator: Adobe Illustrator 23.0.1, SVG Export Plug-In . SVG Version: 6.00 Build 0)  -->
<svg version="1.1" xmlns="http://www.w3.org/2000/svg" xmlns:xlink="http://www.w3.org/1999/xlink" x="0px" y="0px"
	 viewBox="0 0 512 512" style="enable-background:new 0 0 512 512;" xml:space="preserve">
<style type="text/css">
	.st0{fill:#333333;}
</style>
<g id="Layer_1">
</g>
<g id="Layer_2">
	<g>
		<path class="st0" d="M154.89,131.83h154.47c8.84,0,16-7.16,16-16s-7.16-16-16-16H116.46c-0.18,0-0.36,0.02-0.54,0.03
			c-0.33,0.01-0.66,0.02-1,0.05c-0.27,0.03-0.53,0.07-0.8,0.11c-0.25,0.04-0.5,0.07-0.75,0.11c-0.28,0.06-0.56,0.13-0.84,0.2
			c-0.23,0.06-0.45,0.11-0.68,0.17c-0.27,0.08-0.54,0.18-0.8,0.28c-0.23,0.08-0.45,0.16-0.68,0.25c-0.25,0.1-0.49,0.22-0.74,0.34
			c-0.23,0.11-0.46,0.21-0.69,0.33c-0.23,0.12-0.46,0.26-0.68,0.4c-0.22,0.13-0.45,0.26-0.66,0.4c-0.24,0.16-0.46,0.33-0.69,0.5
			c-0.19,0.14-0.38,0.27-0.57,0.43c-0.29,0.24-0.56,0.49-0.84,0.75c-0.1,0.1-0.22,0.18-0.32,0.29c-0.01,0.01-0.01,0.02-0.02,0.02
			c-0.37,0.37-0.73,0.76-1.06,1.17c-0.14,0.17-0.26,0.35-0.4,0.53c-0.18,0.24-0.37,0.47-0.54,0.73c-0.16,0.23-0.29,0.47-0.43,0.71
			c-0.13,0.21-0.26,0.41-0.37,0.63c-0.13,0.24-0.24,0.49-0.35,0.73c-0.11,0.23-0.22,0.45-0.32,0.69c-0.1,0.23-0.17,0.47-0.26,0.71
			c-0.09,0.25-0.19,0.5-0.27,0.76c-0.07,0.24-0.12,0.48-0.18,0.72c-0.07,0.27-0.14,0.53-0.2,0.8c-0.06,0.3-0.1,0.61-0.14,0.91
			c-0.03,0.21-0.07,0.42-0.09,0.64c-0.05,0.52-0.08,1.05-0.08,1.58c0,0.01,0,0.02,0,0.03v192.91c0,8.84,7.16,16,16,16s16-7.16,16-16
			V154.66c52.82,53.18,170.74,171.85,251.78,252.82c3.12,3.12,7.22,4.68,11.31,4.68c4.1,0,8.19-1.56,11.32-4.69
			c6.25-6.25,6.24-16.38-0.01-22.63C325.71,303.76,207.55,184.87,154.89,131.83z"/>
	</g>
</g>
</svg>
