<?xml version="1.0" encoding="utf-8"?>
<!-- Generator: Adobe Illustrator 23.0.1, SVG Export Plug-In . SVG Version: 6.00 Build 0)  -->
<svg version="1.1" xmlns="http://www.w3.org/2000/svg" xmlns:xlink="http://www.w3.org/1999/xlink" x="0px" y="0px"
	 viewBox="0 0 512 512" style="enable-background:new 0 0 512 512;" xml:space="preserve">
<style type="text/css">
	.st0{fill:#333333;}
</style>
<g id="Layer_1">
</g>
<g id="Layer_2">
	<g>
		<path class="st0" d="M56.25,167.83h95.01c8.84,0,16-7.16,16-16V79.61c0-8.84-7.16-16-16-16H56.25c-8.84,0-16,7.16-16,16v72.22
			C40.25,160.67,47.41,167.83,56.25,167.83z M72.25,95.61h63.01v40.22H72.25V95.61z"/>
		<path class="st0" d="M471.75,79.61c0-8.84-7.16-16-16-16H219.21c-8.84,0-16,7.16-16,16v72.22c0,8.84,7.16,16,16,16h236.54
			c8.84,0,16-7.16,16-16V79.61z M439.75,135.83H235.21V95.61h204.54V135.83z"/>
		<path class="st0" d="M40.25,292.11c0,8.84,7.16,16,16,16h95.01c8.84,0,16-7.16,16-16v-72.22c0-8.84-7.16-16-16-16H56.25
			c-8.84,0-16,7.16-16,16V292.11z M72.25,235.89h63.01v40.22H72.25V235.89z"/>
		<path class="st0" d="M471.75,219.89c0-8.84-7.16-16-16-16H219.21c-8.84,0-16,7.16-16,16v72.22c0,8.84,7.16,16,16,16h236.54
			c8.84,0,16-7.16,16-16V219.89z M439.75,276.11H235.21v-40.22h204.54V276.11z"/>
		<path class="st0" d="M40.25,432.39c0,8.84,7.16,16,16,16h95.01c8.84,0,16-7.16,16-16v-72.22c0-8.84-7.16-16-16-16H56.25
			c-8.84,0-16,7.16-16,16V432.39z M72.25,376.17h63.01v40.22H72.25V376.17z"/>
		<path class="st0" d="M455.75,448.39c8.84,0,16-7.16,16-16v-72.22c0-8.84-7.16-16-16-16H219.21c-8.84,0-16,7.16-16,16v72.22
			c0,8.84,7.16,16,16,16H455.75z M235.21,376.17h204.54v40.22H235.21V376.17z"/>
	</g>
</g>
</svg>
