<?xml version="1.0" encoding="utf-8"?>
<!-- Generator: Adobe Illustrator 23.0.1, SVG Export Plug-In . SVG Version: 6.00 Build 0)  -->
<svg version="1.1" xmlns="http://www.w3.org/2000/svg" xmlns:xlink="http://www.w3.org/1999/xlink" x="0px" y="0px"
	 viewBox="0 0 512 512" style="enable-background:new 0 0 512 512;" xml:space="preserve">
<style type="text/css">
	.st0{fill:#333333;}
</style>
<g id="Layer_1">
</g>
<g id="Layer_2">
	<g>
		<path class="st0" d="M166.79,322.58c-6.25,6.25-6.25,16.38,0,22.63c6.25,6.25,16.38,6.25,22.63,0L264.62,270
			c14.31-14.31,22.18-33.33,22.18-53.56s-7.88-39.25-22.18-53.56c-29.53-29.53-77.58-29.53-107.11,0l-65.64,65.64
			c-52.83,52.83-52.83,138.78,0,191.6c26.42,26.42,61.1,39.62,95.8,39.62c34.69,0,69.39-13.21,95.8-39.62l136.67-136.67
			c52.83-52.83,52.83-138.78,0-191.6c-52.82-52.83-138.78-52.82-191.6,0c-6.25,6.25-6.25,16.38,0,22.63
			c3.12,3.13,7.22,4.69,11.31,4.69c4.09,0,8.19-1.56,11.31-4.69c40.35-40.35,106-40.35,146.35,0c40.35,40.35,40.35,106,0,146.35
			L260.84,397.51c-20.18,20.18-46.67,30.26-73.17,30.26c-26.5,0-53-10.09-73.17-30.26c-40.35-40.35-40.35-106,0-146.35l65.64-65.64
			c17.05-17.05,44.81-17.05,61.86,0c17.05,17.06,17.05,44.81,0,61.86L166.79,322.58z"/>
	</g>
</g>
</svg>
