<?xml version="1.0" encoding="utf-8"?>
<!-- Generator: Adobe Illustrator 23.0.1, SVG Export Plug-In . SVG Version: 6.00 Build 0)  -->
<svg version="1.1" xmlns="http://www.w3.org/2000/svg" xmlns:xlink="http://www.w3.org/1999/xlink" x="0px" y="0px"
	 viewBox="0 0 512 512" style="enable-background:new 0 0 512 512;" xml:space="preserve">
<style type="text/css">
	.st0{fill:#333333;}
</style>
<g id="Layer_1">
</g>
<g id="Layer_2">
	<g>
		<path class="st0" d="M116.68,355.42c39.06,34.61,79.68,68.47,120.73,100.66c3.9,3.06,7.44,5.75,11.31,7.73
			c2.29,1.17,4.78,1.75,7.28,1.75s4.99-0.58,7.28-1.75c3.87-1.98,7.41-4.67,11.31-7.73c41.05-32.18,81.67-66.05,120.74-100.66
			c30.1-26.67,58.5-53.59,75.16-89.67c12.52-27.1,16.78-57.79,12.32-88.73c-4.46-30.94-17.21-59.17-36.87-81.64l0,0
			c-26.31-30.07-62.57-47.89-99.5-48.9c-26.89-0.72-54.27,8.31-75.11,24.79c-4.38,3.46-7.99,8.01-11.49,12.41
			c-1.06,1.34-2.49,3.13-3.84,4.72c-1.36-1.58-2.78-3.38-3.84-4.72c-3.49-4.4-7.1-8.95-11.48-12.41
			c-20.85-16.48-48.22-25.52-75.12-24.79c-36.93,1-73.19,18.83-99.5,48.89c-19.66,22.47-32.41,50.7-36.87,81.64
			c-4.46,30.94-0.2,61.62,12.32,88.73C58.18,301.83,86.58,328.75,116.68,355.42z M90.14,116.45c20.15-23.03,48.66-37.23,76.28-37.98
			c0.73-0.02,1.47-0.03,2.21-0.03c18.79,0,37.71,6.48,52.2,17.94c1.46,1.16,4.12,4.5,6.26,7.2c5.49,6.91,11.7,14.75,20.73,18.05
			c2.09,0.76,4.27,1.27,6.48,1.5c1.13,0.12,2.27,0.12,3.39,0c2.21-0.24,4.39-0.74,6.5-1.51c9.01-3.3,15.23-11.13,20.71-18.05
			c2.14-2.69,4.79-6.04,6.26-7.2c15.06-11.91,34.89-18.43,54.4-17.9c27.62,0.75,56.14,14.95,76.29,37.98c0,0,0,0,0,0
			c31.73,36.26,39.78,92.13,19.57,135.88c-14.07,30.46-39.88,54.82-67.33,79.14c-38.22,33.86-77.94,67-118.1,98.52
			c-40.16-31.52-79.89-64.66-118.1-98.52c-27.45-24.32-53.26-48.68-67.33-79.14C50.36,208.58,58.41,152.71,90.14,116.45z"/>
	</g>
</g>
</svg>
