<?xml version="1.0" encoding="utf-8"?>
<!-- Generator: Adobe Illustrator 23.0.1, SVG Export Plug-In . SVG Version: 6.00 Build 0)  -->
<svg version="1.1" xmlns="http://www.w3.org/2000/svg" xmlns:xlink="http://www.w3.org/1999/xlink" x="0px" y="0px"
	 viewBox="0 0 512 512" style="enable-background:new 0 0 512 512;" xml:space="preserve">
<style type="text/css">
	.st0{fill:#333333;}
</style>
<g id="Layer_1">
</g>
<g id="Layer_2">
	<g>
		<path class="st0" d="M256,350.94c51.94,0,94.19-42.25,94.19-94.19V121.69c0-51.94-42.25-94.19-94.19-94.19
			s-94.19,42.25-94.19,94.19v135.07C161.81,308.69,204.06,350.94,256,350.94z M193.81,121.69c0-34.29,27.9-62.19,62.19-62.19
			s62.19,27.9,62.19,62.19v135.07c0,34.29-27.9,62.19-62.19,62.19s-62.19-27.9-62.19-62.19V121.69z"/>
		<path class="st0" d="M117.28,212.13H66.83c-8.84,0-16,7.16-16,16s7.16,16,16,16h34.45v12.63c0,79.91,60.9,145.87,138.72,153.9
			v41.85h-91.05c-8.84,0-16,7.16-16,16s7.16,16,16,16h214.11c8.84,0,16-7.16,16-16s-7.16-16-16-16H272v-41.85
			c77.82-8.03,138.72-73.99,138.72-153.9v-12.63h34.45c8.84,0,16-7.16,16-16s-7.16-16-16-16h-50.45c-8.84,0-16,7.16-16,16v28.63
			c0,67.66-55.04,122.71-122.7,122.72c-0.01,0-0.02,0-0.02,0s-0.02,0-0.02,0c-67.66-0.01-122.7-55.06-122.7-122.72v-28.63
			C133.28,219.29,126.12,212.13,117.28,212.13z"/>
	</g>
</g>
</svg>
