<?xml version="1.0" encoding="utf-8"?>
<!-- Generator: Adobe Illustrator 23.0.1, SVG Export Plug-In . SVG Version: 6.00 Build 0)  -->
<svg version="1.1" xmlns="http://www.w3.org/2000/svg" xmlns:xlink="http://www.w3.org/1999/xlink" x="0px" y="0px"
	 viewBox="0 0 512 512" style="enable-background:new 0 0 512 512;" xml:space="preserve">
<style type="text/css">
	.st0{fill:#333333;}
</style>
<g id="Layer_1">
</g>
<g id="Layer_2">
	<g>
		<path class="st0" d="M241.34,125.91L77.25,220.65c-12.78,7.38-20.41,20.6-20.41,35.35c0,14.76,7.63,27.97,20.41,35.36c0,0,0,0,0,0
			l164.08,94.73c6.39,3.69,13.4,5.54,20.42,5.54c7.01,0,14.02-1.84,20.41-5.53c12.79-7.38,20.42-20.6,20.42-35.36V161.27
			c0-14.76-7.63-27.98-20.42-35.36C269.38,118.53,254.12,118.53,241.34,125.91z M270.58,350.73c0,4.6-3.09,6.88-4.42,7.65
			c-1.33,0.76-4.84,2.3-8.82,0L93.26,263.64l0,0c-3.99-2.3-4.42-6.11-4.42-7.65c0-1.53,0.43-5.34,4.41-7.64l164.08-94.73
			c3.98-2.3,7.5-0.77,8.82,0c1.33,0.77,4.42,3.05,4.42,7.65V350.73z"/>
		<path class="st0" d="M377.47,391.59h41.42c19.99,0,36.26-16.27,36.26-36.26V156.67c0-19.99-16.27-36.26-36.26-36.26h-41.42
			c-19.99,0-36.26,16.27-36.26,36.26v198.67C341.21,375.33,357.48,391.59,377.47,391.59z M373.21,156.67c0-2.35,1.91-4.26,4.26-4.26
			h41.42c2.35,0,4.26,1.91,4.26,4.26v198.67c0,2.35-1.91,4.26-4.26,4.26h-41.42c-2.35,0-4.26-1.91-4.26-4.26V156.67z"/>
	</g>
</g>
</svg>
