<?xml version="1.0" encoding="utf-8"?>
<!-- Generator: Adobe Illustrator 23.0.1, SVG Export Plug-In . SVG Version: 6.00 Build 0)  -->
<svg version="1.1" xmlns="http://www.w3.org/2000/svg" xmlns:xlink="http://www.w3.org/1999/xlink" x="0px" y="0px"
	 viewBox="0 0 512 512" style="enable-background:new 0 0 512 512;" xml:space="preserve">
<style type="text/css">
	.st0{fill:#333333;}
</style>
<g id="Layer_1">
</g>
<g id="Layer_2">
	<g>
		<path class="st0" d="M387.15,223.27c-3.31-18.51-19.17-32-37.89-32.38v-71.05c0-50.92-41.42-92.34-92.34-92.34
			c-50.92,0-92.34,41.42-92.34,92.34v71.03h-1.03c-19.07,0-35.34,13.62-38.69,32.39L86.44,438.28c-2.05,11.48,1.07,23.2,8.56,32.14
			c7.49,8.94,18.47,14.07,30.14,14.07h261.73c11.67,0,22.65-5.13,30.14-14.07c7.49-8.94,10.61-20.66,8.56-32.14L387.15,223.27z
			 M196.57,119.84c0-33.27,27.07-60.34,60.34-60.34c33.27,0,60.34,27.07,60.34,60.34v71.03H196.57V119.84z M392.47,449.88
			c-0.82,0.98-2.63,2.62-5.6,2.62H125.13c-2.97,0-4.78-1.64-5.6-2.62c-0.82-0.98-2.11-3.05-1.59-5.97l38.41-215.02
			c0.62-3.49,3.65-6.02,7.19-6.02h17.03h152.68h15.2c3.54,0,6.57,2.53,7.19,6.02l38.41,215.02
			C394.58,446.83,393.28,448.91,392.47,449.88z"/>
	</g>
</g>
</svg>
