<?xml version="1.0" encoding="utf-8"?>
<!-- Generator: Adobe Illustrator 23.0.1, SVG Export Plug-In . SVG Version: 6.00 Build 0)  -->
<svg version="1.1" xmlns="http://www.w3.org/2000/svg" xmlns:xlink="http://www.w3.org/1999/xlink" x="0px" y="0px"
	 viewBox="0 0 512 512" style="enable-background:new 0 0 512 512;" xml:space="preserve">
<style type="text/css">
	.st0{fill:#333333;}
</style>
<g id="Layer_1">
</g>
<g id="Layer_2">
	<g>
		<path class="st0" d="M256,469.24c101.8,0,184.62-82.82,184.62-184.62c0-47.25-17.85-90.4-47.15-123.09l25.12-25.12
			c6.25-6.25,6.25-16.38,0-22.63c-6.25-6.25-16.38-6.25-22.63,0l-25.83,25.83C338.7,114.82,299.05,100,256,100
			c-101.8,0-184.62,82.82-184.62,184.62S154.2,469.24,256,469.24z M256,132c84.15,0,152.62,68.46,152.62,152.62
			S340.15,437.24,256,437.24s-152.62-68.46-152.62-152.62S171.85,132,256,132z"/>
		<path class="st0" d="M167.53,42.76c-8.84,0-16,7.16-16,16s7.16,16,16,16h176.94c8.84,0,16-7.16,16-16s-7.16-16-16-16H167.53z"/>
		<path class="st0" d="M256,287.26c8.84,0,16-7.16,16-16v-75.72c0-8.84-7.16-16-16-16s-16,7.16-16,16v75.72
			C240,280.1,247.16,287.26,256,287.26z"/>
	</g>
</g>
</svg>
