<?xml version="1.0" encoding="utf-8"?>
<!-- Generator: Adobe Illustrator 23.0.1, SVG Export Plug-In . SVG Version: 6.00 Build 0)  -->
<svg version="1.1" xmlns="http://www.w3.org/2000/svg" xmlns:xlink="http://www.w3.org/1999/xlink" x="0px" y="0px"
	 viewBox="0 0 512 512" style="enable-background:new 0 0 512 512;" xml:space="preserve">
<style type="text/css">
	.st0{fill:#333333;}
</style>
<g id="Layer_1">
</g>
<g id="Layer_2">
	<g>
		<path class="st0" d="M462.8,33.12c-13.38-7.12-29.5-6.27-42.07,2.2L240.21,157.09v-24.93c0-8.84-7.16-16-16-16H43.5
			c-8.84,0-16,7.16-16,16v180.71c0,8.84,7.16,16,16,16h33.43l77.5,146.33c2.77,5.24,8.21,8.51,14.14,8.51h90
			c5.61,0,10.81-2.94,13.71-7.75c2.89-4.81,3.06-10.78,0.43-15.74l-69.57-131.35h21.07c8.84,0,16-7.16,16-16v-24.93l180.52,121.77
			c6.9,4.65,14.86,7.01,22.86,7.01c6.57,0,13.17-1.59,19.21-4.8c13.38-7.12,21.7-20.95,21.7-36.11V69.23
			C484.5,54.08,476.19,40.24,462.8,33.12z M178.2,451.71l-65.06-122.83h53.79l65.06,122.83H178.2z M208.21,296.87H59.5V148.16
			h148.71v39.02v70.67V296.87z M452.5,375.81c0,4.83-3.3,7.1-4.72,7.86c-1.42,0.75-5.15,2.22-9.15-0.48L240.21,249.34v-53.66
			L438.63,61.86c4-2.7,7.73-1.24,9.15-0.48c1.42,0.75,4.72,3.03,4.72,7.86V375.81z"/>
	</g>
</g>
</svg>
