<?xml version="1.0" encoding="utf-8"?>
<!-- Generator: Adobe Illustrator 23.0.1, SVG Export Plug-In . SVG Version: 6.00 Build 0)  -->
<svg version="1.1" xmlns="http://www.w3.org/2000/svg" xmlns:xlink="http://www.w3.org/1999/xlink" x="0px" y="0px"
	 viewBox="0 0 512 512" style="enable-background:new 0 0 512 512;" xml:space="preserve">
<style type="text/css">
	.st0{fill:#333333;}
</style>
<g id="Layer_1">
</g>
<g id="Layer_2">
	<g>
		<path class="st0" d="M422.4,101.47c-0.1-0.01-0.2-0.02-0.3-0.03c-110.21-10.35-221.98-10.35-332.2,0c-0.1,0.01-0.2,0.02-0.3,0.03
			c-25.53,2.88-48.42,23.89-53.25,48.87c-0.03,0.14-0.05,0.27-0.07,0.41c-11.63,69.83-11.63,140.65,0,210.48
			c0.02,0.14,0.05,0.27,0.07,0.41c4.83,24.98,27.72,45.99,53.25,48.87c0.1,0.01,0.2,0.02,0.3,0.03
			c55.12,5.18,110.6,7.76,166.11,7.76c55.49,0,111-2.59,166.1-7.76c0.1-0.01,0.2-0.02,0.3-0.03c25.53-2.88,48.42-23.89,53.25-48.87
			c0.03-0.14,0.05-0.27,0.07-0.41c11.63-69.83,11.63-140.65,0-210.49c-0.02-0.14-0.05-0.27-0.07-0.41
			C470.82,125.37,447.93,104.36,422.4,101.47z M444.2,355.75c-2.25,11.13-13.75,21.59-25.26,22.96
			c-108.12,10.14-217.76,10.14-325.88,0c-11.5-1.37-23.01-11.83-25.26-22.96c-11-66.19-11-133.31,0-199.51
			c2.25-11.13,13.75-21.59,25.26-22.96c108.12-10.14,217.77-10.14,325.88,0c11.5,1.37,23.01,11.83,25.26,22.96
			C455.19,222.44,455.19,289.56,444.2,355.75z"/>
		<path class="st0" d="M312.67,222.44l-74.59-43.07c-12.13-7-26.62-7-38.75,0c-12.13,7-19.37,19.55-19.37,33.56v86.13
			c0,14.01,7.24,26.55,19.37,33.56c6.07,3.5,12.72,5.25,19.37,5.25s13.31-1.75,19.37-5.25l74.59-43.07
			c12.13-7,19.37-19.55,19.37-33.56S324.8,229.45,312.67,222.44z M296.67,261.84l-74.59,43.07c-2.94,1.7-5.49,0.73-6.75,0
			c-1.26-0.73-3.37-2.45-3.37-5.84v-86.13c0-3.39,2.11-5.12,3.37-5.84c0.74-0.43,1.94-0.94,3.39-0.94c1.01,0,2.15,0.25,3.35,0.94
			l74.59,43.07c2.94,1.69,3.37,4.39,3.37,5.84S299.61,260.15,296.67,261.84z"/>
	</g>
</g>
</svg>
