<?xml version="1.0" encoding="utf-8"?>
<!-- Generator: Adobe Illustrator 23.0.1, SVG Export Plug-In . SVG Version: 6.00 Build 0)  -->
<svg version="1.1" xmlns="http://www.w3.org/2000/svg" xmlns:xlink="http://www.w3.org/1999/xlink" x="0px" y="0px"
	 viewBox="0 0 512 512" style="enable-background:new 0 0 512 512;" xml:space="preserve">
<style type="text/css">
	.st0{fill:#333333;}
</style>
<g id="Layer_1">
</g>
<g id="Layer_2">
	<g>
		<path class="st0" d="M368.98,74.55H143.02c-8.84,0-16,7.16-16,16s7.16,16,16,16h225.96c8.84,0,16-7.16,16-16
			S377.82,74.55,368.98,74.55z"/>
		<path class="st0" d="M368.98,184.85H143.02c-8.84,0-16,7.16-16,16s7.16,16,16,16h225.96c8.84,0,16-7.16,16-16
			S377.82,184.85,368.98,184.85z"/>
		<path class="st0" d="M368.98,295.15H143.02c-8.84,0-16,7.16-16,16s7.16,16,16,16h225.96c8.84,0,16-7.16,16-16
			S377.82,295.15,368.98,295.15z"/>
		<path class="st0" d="M368.98,405.45H143.02c-8.84,0-16,7.16-16,16s7.16,16,16,16h225.96c8.84,0,16-7.16,16-16
			S377.82,405.45,368.98,405.45z"/>
	</g>
</g>
</svg>
