<?xml version="1.0" encoding="utf-8"?>
<!-- Generator: Adobe Illustrator 23.0.1, SVG Export Plug-In . SVG Version: 6.00 Build 0)  -->
<svg version="1.1" xmlns="http://www.w3.org/2000/svg" xmlns:xlink="http://www.w3.org/1999/xlink" x="0px" y="0px"
	 viewBox="0 0 512 512" style="enable-background:new 0 0 512 512;" xml:space="preserve">
<style type="text/css">
	.st0{fill:#333333;}
</style>
<g id="Layer_1">
</g>
<g id="Layer_2">
	<g>
		<path class="st0" d="M481.71,276.36c-5.07-24.27-16.73-46.28-33.89-64.11c0.02-0.86,0.02-1.73,0.02-2.59
			c0-73.13-59.49-132.62-132.62-132.62c-41.24,0-79.58,18.92-104.64,51.14c-9.34-1.73-18.85-2.61-28.39-2.61
			c-85.29,0-154.69,69.39-154.69,154.69c0,77.9,58.22,143.89,135.42,153.49v0c0.05,0.01,0.1,0.01,0.15,0.02
			c6.33,0.78,12.76,1.18,19.12,1.18c6.04,0,12.14-0.36,18.15-1.06c14.18,0.1,147.44,1.06,152.6,1.06c5.96,0,11.98-0.41,17.9-1.21
			c10.35-1.41,20.49-4.05,30.13-7.84c24.35-9.55,45.13-25.99,60.1-47.54c15.33-22.08,23.44-48,23.44-74.96
			c0-7.64-0.66-15.3-1.96-22.77C482.29,279.2,482.01,277.77,481.71,276.36z M389.27,396.11c-7.28,2.86-14.93,4.85-22.75,5.92
			c-4.49,0.61-9.06,0.92-13.58,0.92c-5.23,0-151.91-1.06-153.39-1.07c-0.71,0.01-1.39,0.04-2.08,0.12
			c-10.12,1.25-20.44,1.25-30.56,0c-0.05-0.01-0.09-0.01-0.14-0.02C105.61,394.33,59.5,342.02,59.5,280.26
			c0-67.65,55.04-122.69,122.69-122.69c10.56,0,21.06,1.35,31.2,4c6.67,1.74,13.7-0.97,17.46-6.74
			c18.68-28.67,50.22-45.79,84.38-45.79c55.48,0,100.62,45.14,100.62,100.62c0,2.59-0.1,5.2-0.29,7.77
			c-0.37,4.86,1.5,9.63,5.07,12.95c15.26,14.15,25.55,32.33,29.77,52.56c0.01,0.04,0.02,0.07,0.02,0.11c0.21,1,0.41,2.01,0.58,3.01
			c0,0.01,0,0.02,0,0.03c0.99,5.67,1.49,11.49,1.49,17.3C452.5,344.65,427.68,381.04,389.27,396.11z"/>
	</g>
</g>
</svg>
