<?xml version="1.0" encoding="utf-8"?>
<!-- Generator: Adobe Illustrator 23.0.1, SVG Export Plug-In . SVG Version: 6.00 Build 0)  -->
<svg version="1.1" xmlns="http://www.w3.org/2000/svg" xmlns:xlink="http://www.w3.org/1999/xlink" x="0px" y="0px"
	 viewBox="0 0 512 512" style="enable-background:new 0 0 512 512;" xml:space="preserve">
<style type="text/css">
	.st0{fill:#333333;}
</style>
<g id="Layer_1">
</g>
<g id="Layer_2">
	<g>
		<path class="st0" d="M440.93,107.14H71.07c-21.69,0-40.23,17.37-43.16,40.41c-0.27,2.07-0.41,4.22-0.41,6.4v204.08
			c0,25.82,19.55,46.82,43.57,46.82h369.86c24.02,0,43.57-21,43.57-46.82V153.96C484.5,128.15,464.95,107.14,440.93,107.14z
			 M452.5,358.04c0,8.03-5.3,14.82-11.57,14.82H71.07c-6.27,0-11.57-6.79-11.57-14.82V153.96c0-0.79,0.05-1.54,0.14-2.22
			c0.01-0.04,0.01-0.09,0.02-0.13c0.89-7.11,5.8-12.46,11.41-12.46h369.86c6.27,0,11.57,6.79,11.57,14.82V358.04z"/>
		<path class="st0" d="M426.17,205.6c-12.75-6.97-23.49-18.57-30.24-32.68c-2.66-5.56-8.27-9.09-14.43-9.09h-251
			c-6.16,0-11.77,3.54-14.43,9.09c-6.75,14.1-17.49,25.71-30.24,32.68c-5.13,2.81-8.33,8.19-8.33,14.04v72.72
			c0,5.85,3.2,11.24,8.34,14.04c5.41,2.95,10.45,6.71,14.99,11.18c6.21,6.11,11.34,13.34,15.25,21.5c2.66,5.56,8.27,9.09,14.43,9.09
			h251c6.16,0,11.77-3.54,14.43-9.09c3.91-8.16,9.04-15.39,15.26-21.51c4.53-4.46,9.57-8.22,14.98-11.17
			c5.14-2.8,8.34-8.19,8.34-14.04v-72.72C434.5,213.79,431.31,208.4,426.17,205.6z M402.5,283.43c-4.88,3.34-9.48,7.13-13.76,11.34
			c-6.46,6.35-12.09,13.53-16.8,21.41H140.05c-4.71-7.88-10.33-15.05-16.79-21.4c-4.28-4.22-8.89-8.01-13.77-11.35v-54.87
			c12.17-8.36,22.67-19.61,30.54-32.73h231.92c7.88,13.12,18.37,24.37,30.54,32.73V283.43z"/>
		<path class="st0" d="M256,205.17c-26.19,0-47.49,22.8-47.49,50.83s21.3,50.83,47.49,50.83s47.49-22.8,47.49-50.83
			S282.19,205.17,256,205.17z M256,271.49c-8.54,0-15.49-6.95-15.49-15.49s6.95-15.49,15.49-15.49s15.49,6.95,15.49,15.49
			S264.54,271.49,256,271.49z"/>
	</g>
</g>
</svg>
