<?xml version="1.0" encoding="utf-8"?>
<!-- Generator: Adobe Illustrator 23.0.1, SVG Export Plug-In . SVG Version: 6.00 Build 0)  -->
<svg version="1.1" xmlns="http://www.w3.org/2000/svg" xmlns:xlink="http://www.w3.org/1999/xlink" x="0px" y="0px"
	 viewBox="0 0 512 512" style="enable-background:new 0 0 512 512;" xml:space="preserve">
<style type="text/css">
	.st0{fill:#333333;}
</style>
<g id="Layer_1">
</g>
<g id="Layer_2">
	<g>
		<path class="st0" d="M469.05,189.29c8.84,0,16-7.16,16-16V43.02c0-0.01,0-0.01,0-0.02v-0.05c0-0.12-0.02-0.23-0.02-0.35
			c-0.01-0.4-0.02-0.8-0.06-1.2c-0.02-0.23-0.06-0.45-0.1-0.68c-0.04-0.29-0.08-0.58-0.13-0.87c-0.05-0.26-0.12-0.5-0.18-0.75
			c-0.06-0.25-0.12-0.51-0.2-0.76c-0.08-0.25-0.17-0.49-0.25-0.74c-0.09-0.25-0.17-0.5-0.27-0.74c-0.1-0.23-0.21-0.45-0.31-0.68
			c-0.12-0.25-0.23-0.5-0.36-0.74c-0.12-0.22-0.25-0.43-0.37-0.64c-0.14-0.24-0.27-0.47-0.43-0.7c-0.15-0.23-0.32-0.44-0.48-0.66
			c-0.15-0.2-0.29-0.4-0.45-0.6c-0.23-0.29-0.48-0.55-0.74-0.82c-0.1-0.11-0.19-0.23-0.3-0.33c-0.01-0.01-0.02-0.01-0.02-0.02
			c-0.37-0.37-0.76-0.73-1.17-1.06c-0.17-0.14-0.36-0.27-0.53-0.4c-0.24-0.18-0.47-0.37-0.72-0.53c-0.23-0.16-0.47-0.29-0.71-0.43
			c-0.21-0.13-0.42-0.26-0.63-0.38c-0.24-0.13-0.48-0.23-0.72-0.35c-0.23-0.11-0.46-0.23-0.7-0.33c-0.23-0.09-0.46-0.17-0.69-0.25
			c-0.26-0.1-0.52-0.2-0.79-0.28c-0.22-0.07-0.44-0.11-0.66-0.17c-0.28-0.07-0.57-0.15-0.86-0.21c-0.26-0.05-0.51-0.08-0.77-0.12
			c-0.26-0.04-0.51-0.09-0.78-0.12c-0.52-0.05-1.04-0.08-1.56-0.08c-0.01,0-0.03,0-0.04,0H338.71c-8.84,0-16,7.16-16,16
			s7.16,16,16,16h91.52c-24.52,24.36-62.13,61.73-99.08,98.54H179.39c-36.68-36.82-73.83-74.2-98-98.54h91.91c8.84,0,16-7.16,16-16
			s-7.16-16-16-16H42.95c-0.15,0-0.29,0.02-0.43,0.02c-0.37,0.01-0.74,0.02-1.12,0.06c-0.25,0.02-0.48,0.07-0.73,0.1
			c-0.27,0.04-0.55,0.07-0.82,0.13c-0.27,0.05-0.53,0.12-0.79,0.19c-0.24,0.06-0.49,0.12-0.73,0.19c-0.26,0.08-0.51,0.17-0.76,0.26
			c-0.24,0.09-0.48,0.17-0.71,0.26c-0.24,0.1-0.47,0.21-0.71,0.32c-0.24,0.11-0.48,0.22-0.71,0.34c-0.23,0.12-0.44,0.26-0.66,0.39
			c-0.23,0.14-0.46,0.27-0.68,0.41c-0.24,0.16-0.46,0.33-0.69,0.5c-0.19,0.14-0.38,0.27-0.57,0.43c-0.3,0.25-0.58,0.51-0.87,0.78
			c-0.09,0.09-0.2,0.17-0.29,0.26c-0.01,0.01-0.01,0.01-0.02,0.02c-0.37,0.37-0.73,0.76-1.07,1.17c-0.13,0.16-0.24,0.33-0.37,0.49
			c-0.19,0.25-0.39,0.5-0.56,0.76c-0.15,0.23-0.29,0.47-0.43,0.7c-0.13,0.21-0.26,0.42-0.38,0.64c-0.13,0.24-0.24,0.49-0.35,0.73
			c-0.11,0.23-0.22,0.45-0.32,0.69c-0.1,0.23-0.17,0.47-0.26,0.71c-0.09,0.25-0.19,0.51-0.27,0.77c-0.07,0.23-0.12,0.47-0.18,0.71
			c-0.07,0.27-0.15,0.53-0.2,0.81c-0.06,0.3-0.1,0.6-0.14,0.9c-0.03,0.22-0.07,0.43-0.1,0.65c-0.05,0.52-0.08,1.05-0.08,1.58
			c0,0.01,0,0.02,0,0.03v130.34c0,8.84,7.16,16,16,16s16-7.16,16-16V81.77c24.36,24.52,61.73,62.13,98.54,99.08v150.3
			c-36.81,36.95-74.18,74.55-98.54,99.08v-91.52c0-8.84-7.16-16-16-16s-16,7.16-16,16v130.34c0,0.01,0,0.02,0,0.03
			c0,0.53,0.03,1.05,0.08,1.58c0.02,0.22,0.07,0.43,0.1,0.65c0.04,0.3,0.08,0.6,0.14,0.9c0.05,0.27,0.13,0.54,0.2,0.81
			c0.06,0.24,0.11,0.48,0.18,0.71c0.08,0.26,0.18,0.51,0.27,0.77c0.09,0.24,0.16,0.48,0.26,0.71c0.1,0.23,0.21,0.46,0.32,0.69
			c0.12,0.24,0.22,0.49,0.35,0.73c0.12,0.22,0.25,0.43,0.38,0.64c0.14,0.23,0.27,0.47,0.43,0.7c0.18,0.26,0.37,0.51,0.56,0.76
			c0.13,0.16,0.24,0.33,0.37,0.49c0.34,0.41,0.69,0.8,1.07,1.17c0.01,0.01,0.01,0.01,0.02,0.02c0.1,0.1,0.2,0.18,0.3,0.27
			c0.28,0.26,0.56,0.52,0.85,0.76c0.19,0.16,0.39,0.29,0.58,0.44c0.22,0.17,0.44,0.34,0.67,0.49c0.23,0.15,0.46,0.29,0.7,0.42
			c0.21,0.13,0.42,0.26,0.64,0.38c0.24,0.13,0.49,0.24,0.74,0.35c0.23,0.11,0.45,0.22,0.68,0.31c0.24,0.1,0.49,0.18,0.74,0.27
			c0.24,0.09,0.49,0.18,0.74,0.26c0.25,0.08,0.5,0.13,0.75,0.19c0.25,0.06,0.5,0.13,0.76,0.19c0.29,0.06,0.58,0.09,0.87,0.13
			c0.23,0.03,0.45,0.07,0.67,0.1c0.52,0.05,1.05,0.08,1.58,0.08h0h0h130.34c8.84,0,16-7.16,16-16s-7.16-16-16-16H81.38
			c24.41-24.58,62.06-62.46,99.1-99.64h149.56c37.3,37.17,75.41,75.04,100.18,99.64h-91.52c-8.84,0-16,7.16-16,16s7.16,16,16,16
			h130.34c0.53,0,1.06-0.03,1.58-0.08c0.24-0.02,0.48-0.07,0.72-0.1c0.28-0.04,0.55-0.07,0.83-0.13c0.27-0.05,0.54-0.13,0.81-0.2
			c0.24-0.06,0.48-0.11,0.71-0.18c0.26-0.08,0.51-0.18,0.77-0.27c0.24-0.09,0.48-0.16,0.71-0.26c0.23-0.1,0.46-0.21,0.69-0.32
			c0.25-0.12,0.5-0.23,0.74-0.35c0.21-0.11,0.42-0.25,0.62-0.37c0.24-0.14,0.49-0.28,0.72-0.44c0.24-0.16,0.46-0.34,0.69-0.51
			c0.19-0.14,0.39-0.27,0.57-0.43c0.41-0.33,0.79-0.69,1.17-1.06c0.01-0.01,0.02-0.02,0.03-0.02c0.12-0.12,0.22-0.25,0.33-0.37
			c0.24-0.26,0.48-0.51,0.7-0.78c0.16-0.2,0.31-0.41,0.46-0.61c0.16-0.21,0.32-0.42,0.47-0.65c0.15-0.23,0.29-0.47,0.43-0.71
			c0.13-0.21,0.26-0.42,0.37-0.64c0.13-0.24,0.24-0.49,0.36-0.74c0.11-0.23,0.22-0.45,0.31-0.68c0.1-0.24,0.18-0.49,0.27-0.74
			c0.09-0.25,0.18-0.49,0.26-0.74c0.08-0.25,0.13-0.5,0.19-0.76c0.06-0.25,0.13-0.5,0.18-0.76c0.06-0.28,0.09-0.57,0.13-0.85
			c0.03-0.23,0.07-0.46,0.1-0.7c0.04-0.39,0.05-0.78,0.06-1.17c0-0.13,0.02-0.25,0.02-0.38v-0.06c0,0,0,0,0-0.01V338.71
			c0-8.84-7.16-16-16-16s-16,7.16-16,16v91.91c-24.58-24.41-62.46-62.06-99.64-99.1V180.48c37.18-37.04,75.06-74.69,99.64-99.1
			v91.91C453.05,182.13,460.21,189.29,469.05,189.29z M189.49,189.49h131.92v131.92H189.49V189.49z"/>
	</g>
</g>
</svg>
