<?xml version="1.0" encoding="utf-8"?>
<!-- Generator: Adobe Illustrator 23.0.1, SVG Export Plug-In . SVG Version: 6.00 Build 0)  -->
<svg version="1.1" xmlns="http://www.w3.org/2000/svg" xmlns:xlink="http://www.w3.org/1999/xlink" x="0px" y="0px"
	 viewBox="0 0 512 512" style="enable-background:new 0 0 512 512;" xml:space="preserve">
<style type="text/css">
	.st0{fill:#333333;}
</style>
<g id="Layer_1">
</g>
<g id="Layer_2">
	<g>
		<path class="st0" d="M63.67,415.08h321.15c19.95,0,36.17-16.23,36.17-36.17v-57.87h34.3c16.1,0,29.2-13.1,29.2-29.2v-71.69
			c0-16.1-13.1-29.2-29.2-29.2H421v-57.87c0-19.95-16.23-36.17-36.17-36.17H63.67c-19.95,0-36.17,16.23-36.17,36.17v245.82
			C27.5,398.86,43.73,415.08,63.67,415.08z M452.5,222.96v66.08H421v-66.08H452.5z M59.5,133.09c0-2.3,1.87-4.17,4.17-4.17h321.15
			c2.3,0,4.17,1.87,4.17,4.17v73.87v98.08v73.87c0,2.3-1.87,4.17-4.17,4.17H63.67c-2.3,0-4.17-1.87-4.17-4.17V133.09z"/>
		<path class="st0" d="M103.5,355.08H184c8.84,0,16-7.16,16-16V172.92c0-8.84-7.16-16-16-16h-80.5c-8.84,0-16,7.16-16,16v166.17
			C87.5,347.92,94.66,355.08,103.5,355.08z M119.5,188.92H168v134.17h-48.5V188.92z"/>
	</g>
</g>
</svg>
