<?xml version="1.0" encoding="utf-8"?>
<!-- Generator: Adobe Illustrator 23.0.1, SVG Export Plug-In . SVG Version: 6.00 Build 0)  -->
<svg version="1.1" xmlns="http://www.w3.org/2000/svg" xmlns:xlink="http://www.w3.org/1999/xlink" x="0px" y="0px"
	 viewBox="0 0 512 512" style="enable-background:new 0 0 512 512;" xml:space="preserve">
<style type="text/css">
	.st0{fill:#333333;}
</style>
<g id="Layer_1">
</g>
<g id="Layer_2">
	<g>
		<path class="st0" d="M51.46,267.57c0,49.27,17.31,95.88,49.04,132.88l-37.84,37.84c-6.25,6.25-6.25,16.38,0,22.63
			c3.12,3.12,7.22,4.69,11.31,4.69s8.19-1.56,11.31-4.69l37.84-37.84c37,31.73,83.61,49.04,132.88,49.04
			c49.27,0,95.88-17.31,132.88-49.04l42.94,42.93c3.12,3.12,7.22,4.69,11.31,4.69s8.19-1.56,11.31-4.69
			c6.25-6.25,6.25-16.38,0-22.63l-42.94-42.94c31.73-37,49.04-83.61,49.04-132.88c0-112.79-91.76-204.54-204.54-204.54
			S51.46,154.78,51.46,267.57z M256,95.02c95.14,0,172.54,77.4,172.54,172.54c0,46.09-17.95,89.42-50.55,122
			c-32.58,32.59-75.91,50.54-122,50.54c-46.09,0-89.41-17.95-122-50.54c0,0,0,0,0,0c0,0,0,0,0,0c-32.59-32.58-50.54-75.9-50.54-122
			C83.46,172.43,160.86,95.02,256,95.02z"/>
		<path class="st0" d="M409.68,42.69c-7.29-4.99-17.25-3.13-22.24,4.16c-4.99,7.29-3.13,17.25,4.16,22.24
			c24.76,16.95,45.92,38.11,62.87,62.87c3.1,4.53,8.11,6.96,13.22,6.96c3.11,0,6.26-0.91,9.02-2.8c7.29-4.99,9.16-14.95,4.16-22.24
			C461.68,85.84,437.73,61.89,409.68,42.69z"/>
		<path class="st0" d="M57.52,131.96c16.96-24.76,38.11-45.92,62.87-62.87c7.29-4.99,9.16-14.95,4.16-22.24s-14.95-9.16-22.24-4.16
			c-28.04,19.2-52,43.15-71.2,71.2c-4.99,7.29-3.13,17.25,4.16,22.24c2.76,1.89,5.91,2.8,9.02,2.8
			C49.41,138.93,54.42,136.49,57.52,131.96z"/>
		<path class="st0" d="M292.14,326.34c3.12,3.12,7.22,4.69,11.31,4.69s8.19-1.56,11.31-4.69c6.25-6.25,6.25-16.38,0-22.63
			L272,260.94v-75.28c0-8.84-7.16-16-16-16s-16,7.16-16,16v81.91c0,4.24,1.69,8.31,4.69,11.31L292.14,326.34z"/>
	</g>
</g>
</svg>
