<?xml version="1.0" encoding="utf-8"?>
<!-- Generator: Adobe Illustrator 23.0.1, SVG Export Plug-In . SVG Version: 6.00 Build 0)  -->
<svg version="1.1" xmlns="http://www.w3.org/2000/svg" xmlns:xlink="http://www.w3.org/1999/xlink" x="0px" y="0px"
	 viewBox="0 0 512 512" style="enable-background:new 0 0 512 512;" xml:space="preserve">
<style type="text/css">
	.st0{fill:#333333;}
</style>
<g id="Layer_1">
</g>
<g id="Layer_2">
	<g>
		<path class="st0" d="M448.02,104.98c0-22.61-18.39-41-41-41H104.98c-22.61,0-41,18.39-41,41v302.04c0,22.61,18.39,41,41,41h302.04
			c22.61,0,41-18.39,41-41V104.98z M416.02,407.02c0,4.96-4.04,9-9,9H104.98c-4.96,0-9-4.04-9-9V104.98c0-4.96,4.04-9,9-9h302.04
			c4.96,0,9,4.04,9,9V407.02z"/>
		<path class="st0" d="M361.72,120.66H146.49c-16.5,0-29.92,13.42-29.92,29.92v39.57c0,16.5,13.42,29.92,29.92,29.92h57.92v144.72
			c0,16.5,13.42,29.92,29.92,29.92h39.58c16.5,0,29.92-13.42,29.92-29.92V220.06h57.91c16.5,0,29.92-13.42,29.92-29.92v-39.57
			C391.64,134.08,378.22,120.66,361.72,120.66z M359.64,188.06h-57.91c-16.5,0-29.92,13.42-29.92,29.92V362.7H236.4V217.98
			c0-16.5-13.42-29.92-29.92-29.92h-57.91v-35.4h211.07V188.06z"/>
	</g>
</g>
</svg>
