<?xml version="1.0" encoding="utf-8"?>
<!-- Generator: Adobe Illustrator 23.0.1, SVG Export Plug-In . SVG Version: 6.00 Build 0)  -->
<svg version="1.1" xmlns="http://www.w3.org/2000/svg" xmlns:xlink="http://www.w3.org/1999/xlink" x="0px" y="0px"
	 viewBox="0 0 512 512" style="enable-background:new 0 0 512 512;" xml:space="preserve">
<style type="text/css">
	.st0{fill:#333333;}
</style>
<g id="Layer_1">
</g>
<g id="Layer_2">
	<g>
		<path class="st0" d="M443.52,186.38h-91.5v-59.1c0-22.6-18.38-40.99-40.98-40.99H68.48c-22.6,0-40.98,18.39-40.98,40.99v157.35
			c0,22.6,18.38,40.98,40.98,40.98h91.5v59.1c0,22.6,18.38,40.99,40.98,40.99h242.56c22.6,0,40.98-18.39,40.98-40.99V227.36
			C484.5,204.77,466.12,186.38,443.52,186.38z M68.48,293.61c-4.95,0-8.98-4.03-8.98-8.98V127.29c0-4.96,4.03-8.99,8.98-8.99h242.56
			c4.95,0,8.98,4.03,8.98,8.99v59.1H200.96c-22.6,0-40.98,18.38-40.98,40.98v66.25H68.48z M452.5,384.71c0,4.96-4.03,8.99-8.98,8.99
			H200.96c-4.95,0-8.98-4.03-8.98-8.99v-75.1v-82.25c0-4.95,4.03-8.98,8.98-8.98h135.06h107.5c4.95,0,8.98,4.03,8.98,8.98V384.71z"
			/>
		<path class="st0" d="M267.18,257.7c-26.65,0-48.34,21.69-48.34,48.34s21.69,48.34,48.34,48.34s48.34-21.69,48.34-48.34
			S293.83,257.7,267.18,257.7z M267.18,322.39c-9.01,0-16.34-7.33-16.34-16.34s7.33-16.34,16.34-16.34s16.34,7.33,16.34,16.34
			S276.19,322.39,267.18,322.39z"/>
		<path class="st0" d="M377.3,257.7c-26.65,0-48.34,21.69-48.34,48.34s21.69,48.34,48.34,48.34s48.34-21.69,48.34-48.34
			S403.96,257.7,377.3,257.7z M377.3,322.39c-9.01,0-16.34-7.33-16.34-16.34s7.33-16.34,16.34-16.34s16.34,7.33,16.34,16.34
			S386.31,322.39,377.3,322.39z"/>
	</g>
</g>
</svg>
