<?xml version="1.0" encoding="utf-8"?>
<!-- Generator: Adobe Illustrator 23.0.1, SVG Export Plug-In . SVG Version: 6.00 Build 0)  -->
<svg version="1.1" xmlns="http://www.w3.org/2000/svg" xmlns:xlink="http://www.w3.org/1999/xlink" x="0px" y="0px"
	 viewBox="0 0 512 512" style="enable-background:new 0 0 512 512;" xml:space="preserve">
<style type="text/css">
	.st0{fill:#333333;}
</style>
<g id="Layer_1">
</g>
<g id="Layer_2">
	<g>
		<path class="st0" d="M445.21,455.77c21.55,0,39.08-17.53,39.08-39.08V163.89c0-21.55-17.53-39.08-39.08-39.08H248.62
			c-2.5,0-4.83-1.34-6.1-3.49c-0.24-0.42-0.51-0.82-0.79-1.21l-32.51-45.33c-7.08-11.47-19.75-18.56-33.25-18.56H66.79
			c-21.55,0-39.08,17.53-39.08,39.08v321.39c0,21.55,17.53,39.08,39.08,39.08H445.21z M59.71,416.69V95.31
			c0-3.9,3.17-7.08,7.08-7.08h109.19c2.5,0,4.83,1.34,6.1,3.49c0.24,0.42,0.51,0.82,0.79,1.21l32.51,45.33
			c7.08,11.46,19.75,18.55,33.25,18.55h196.59c3.9,0,7.08,3.17,7.08,7.08v252.81c0,3.9-3.17,7.08-7.08,7.08H66.79
			C62.88,423.77,59.71,420.6,59.71,416.69z"/>
	</g>
</g>
</svg>
