<?xml version="1.0" encoding="utf-8"?>
<!-- Generator: Adobe Illustrator 23.0.1, SVG Export Plug-In . SVG Version: 6.00 Build 0)  -->
<svg version="1.1" xmlns="http://www.w3.org/2000/svg" xmlns:xlink="http://www.w3.org/1999/xlink" x="0px" y="0px"
	 viewBox="0 0 512 512" style="enable-background:new 0 0 512 512;" xml:space="preserve">
<style type="text/css">
	.st0{fill:#333333;}
</style>
<g id="Layer_1">
</g>
<g id="Layer_2">
	<g>
		<path class="st0" d="M378.42,436.66c5.62-1.82,11.25-3.98,16.73-6.41c40.18-17.79,67.17-47.27,67.17-73.37V68.64
			c0-11.89-5.43-22.85-14.89-30.05c-9.46-7.2-21.47-9.52-32.93-6.35l-263.84,72.94c-16.31,4.51-27.7,19.48-27.7,36.4v223.55
			c-2.05,0.82-4.09,1.67-6.13,2.57c-21.32,9.44-39.74,22.63-51.85,37.14c-14.68,17.59-19.03,35.7-12.25,51
			c6.77,15.31,23.11,24.26,46,25.22c1.35,0.06,2.71,0.08,4.08,0.08c17.95,0,38.46-4.74,58.28-13.51
			c12.16-5.38,23.26-11.89,33.01-19.35c18.63-14.25,30.51-30.71,33.43-46.35c0.18-0.97,0.27-1.96,0.27-2.94V193.18l129.66-37.34
			v171.72c-2.21,0.87-4.4,1.79-6.58,2.76c-21.33,9.44-39.74,22.63-51.86,37.14c-14.68,17.58-19.03,35.7-12.26,51.01
			C297.88,443.49,334.69,450.81,378.42,436.66z M316.05,405.51c-3.15-7.11,13.02-30.54,47.82-45.94c4.77-2.12,9.63-3.96,14.44-5.49
			c6.65-2.11,11.17-8.28,11.17-15.25V134.58c0-5.03-2.36-9.76-6.38-12.78c-4.02-3.02-9.22-3.98-14.05-2.59l-161.66,46.56
			c-6.85,1.97-11.57,8.24-11.57,15.38v216.09c-1.65,6-7.93,15.54-21.15,25.64c-7.75,5.93-16.68,11.14-26.53,15.51
			c-16.68,7.38-34.2,11.29-48.07,10.71c-10.73-0.45-16.89-3.52-18.07-6.2c-1.18-2.67,0.68-9.3,7.56-17.54
			c8.89-10.66,23.56-21,40.23-28.38c4.67-2.07,9.4-3.87,14.05-5.35c6.63-2.12,11.13-8.28,11.13-15.24V141.57
			c0-2.58,1.74-4.87,4.23-5.55l263.83-72.94c2.4-0.66,4.18,0.32,5.02,0.97c0.85,0.65,2.27,2.1,2.27,4.58v288.25
			c0,9.56-16.73,30.2-48.13,44.1c-4.48,1.98-9.08,3.74-13.65,5.23C338.59,415.91,318.44,410.91,316.05,405.51z"/>
	</g>
</g>
</svg>
