<?xml version="1.0" encoding="utf-8"?>
<!-- Generator: Adobe Illustrator 23.0.1, SVG Export Plug-In . SVG Version: 6.00 Build 0)  -->
<svg version="1.1" xmlns="http://www.w3.org/2000/svg" xmlns:xlink="http://www.w3.org/1999/xlink" x="0px" y="0px"
	 viewBox="0 0 512 512" style="enable-background:new 0 0 512 512;" xml:space="preserve">
<style type="text/css">
	.st0{fill:#333333;}
</style>
<g id="Layer_1">
</g>
<g id="Layer_2">
	<g>
		<path class="st0" d="M436.39,75.61c-57.9-57.9-152.11-57.9-210.01,0c-22.55,22.55-36.91,50.88-41.73,82.19L41.43,346.83
			c-4.83,6.37-4.21,15.32,1.44,20.98l4.39,4.39c-21.43,25.8-20.08,64.26,4.1,88.44c12.41,12.42,28.92,19.25,46.48,19.25
			c15.51,0,30.19-5.34,41.97-15.15l4.38,4.38c3.1,3.1,7.2,4.69,11.32,4.69c3.38,0,6.78-1.07,9.66-3.25l189.04-143.22
			c31.31-4.82,59.64-19.19,82.19-41.73C494.29,227.72,494.29,133.51,436.39,75.61z M117,441.93c-5.59,3.87-12.21,5.96-19.16,5.96
			c-9.01,0-17.48-3.51-23.85-9.88c0,0,0,0,0,0c-11.68-11.68-12.98-29.87-3.92-43l23.46,23.46L117,441.93z M156.96,436.64l-81.6-81.6
			l126.13-166.49l121.95,121.96L156.96,436.64z M413.77,262.99c-16.74,16.73-37.53,27.73-60.51,32.07L216.94,158.74
			c4.34-22.98,15.33-43.77,32.07-60.51c45.42-45.42,119.33-45.42,164.76,0C459.19,143.66,459.19,217.57,413.77,262.99z"/>
		<path class="st0" d="M187.92,324.08c3.12,3.12,7.22,4.69,11.31,4.69s8.19-1.56,11.31-4.69l25.78-25.78
			c6.25-6.25,6.25-16.38,0-22.63c-6.25-6.25-16.38-6.25-22.63,0l-25.78,25.78C181.67,307.71,181.67,317.84,187.92,324.08z"/>
	</g>
</g>
</svg>
