<?xml version="1.0" encoding="utf-8"?>
<!-- Generator: Adobe Illustrator 23.0.1, SVG Export Plug-In . SVG Version: 6.00 Build 0)  -->
<svg version="1.1" xmlns="http://www.w3.org/2000/svg" xmlns:xlink="http://www.w3.org/1999/xlink" x="0px" y="0px"
	 viewBox="0 0 512 512" style="enable-background:new 0 0 512 512;" xml:space="preserve">
<style type="text/css">
	.st0{fill:#333333;}
</style>
<g id="Layer_1">
</g>
<g id="Layer_2">
	<g>
		<path class="st0" d="M225.86,151.08c-0.1-0.51-0.23-1.02-0.38-1.52c-0.16-0.49-0.33-0.99-0.53-1.47c-0.2-0.48-0.43-0.96-0.67-1.41
			c-0.25-0.46-0.52-0.92-0.8-1.35c-0.29-0.44-0.61-0.86-0.94-1.26c-0.33-0.41-0.68-0.8-1.05-1.17c-0.37-0.37-0.76-0.73-1.17-1.06
			c-0.4-0.33-0.83-0.64-1.26-0.93c-0.44-0.29-0.89-0.56-1.35-0.81c-0.46-0.24-0.94-0.46-1.42-0.66c-0.48-0.2-0.97-0.38-1.47-0.53
			c-0.5-0.15-1.01-0.28-1.52-0.39c-0.51-0.1-1.03-0.18-1.55-0.23c-1.05-0.1-2.1-0.1-3.15,0c-0.52,0.05-1.04,0.13-1.55,0.23
			c-0.51,0.11-1.02,0.24-1.52,0.39c-0.5,0.15-1,0.33-1.48,0.53c-0.48,0.2-0.95,0.42-1.41,0.66c-0.46,0.25-0.92,0.52-1.35,0.81
			c-0.43,0.29-0.86,0.6-1.26,0.93c-0.41,0.33-0.8,0.69-1.17,1.06c-0.37,0.37-0.73,0.76-1.06,1.17c-0.33,0.4-0.64,0.82-0.93,1.26
			c-0.29,0.43-0.56,0.89-0.8,1.35c-0.25,0.45-0.47,0.93-0.67,1.41c-0.2,0.48-0.38,0.98-0.53,1.47c-0.15,0.5-0.28,1.01-0.39,1.52
			c-0.1,0.52-0.18,1.04-0.23,1.56c-0.05,0.52-0.08,1.05-0.08,1.57c0,0.52,0.03,1.05,0.08,1.57c0.05,0.52,0.13,1.04,0.23,1.56
			c0.11,0.51,0.24,1.02,0.39,1.51c0.15,0.5,0.33,1,0.53,1.48c0.2,0.48,0.42,0.96,0.67,1.42c0.24,0.46,0.51,0.91,0.8,1.34
			c0.29,0.44,0.6,0.86,0.93,1.27c0.33,0.4,0.69,0.8,1.06,1.16c0.37,0.37,0.76,0.73,1.17,1.06c0.4,0.33,0.83,0.65,1.26,0.93
			c0.43,0.29,0.89,0.56,1.35,0.81c0.46,0.24,0.93,0.47,1.41,0.66c0.48,0.2,0.98,0.38,1.48,0.53s1.01,0.28,1.52,0.39
			c0.51,0.1,1.03,0.18,1.55,0.23c0.52,0.05,1.05,0.08,1.57,0.08c0.53,0,1.06-0.03,1.58-0.08c0.52-0.05,1.04-0.13,1.55-0.23
			c0.51-0.11,1.02-0.24,1.52-0.39s0.99-0.33,1.47-0.53c0.48-0.19,0.96-0.42,1.42-0.66c0.46-0.25,0.91-0.52,1.34-0.81
			c0.44-0.28,0.86-0.6,1.27-0.93c0.4-0.33,0.79-0.69,1.16-1.06c0.37-0.36,0.73-0.76,1.06-1.16c0.33-0.41,0.65-0.83,0.94-1.27
			c0.28-0.43,0.55-0.88,0.8-1.34c0.24-0.46,0.47-0.94,0.67-1.42c0.2-0.48,0.37-0.98,0.53-1.48c0.15-0.49,0.28-1,0.38-1.51
			c0.1-0.52,0.18-1.04,0.23-1.56c0.06-0.52,0.08-1.05,0.08-1.57c0-0.52-0.02-1.05-0.08-1.57
			C226.04,152.12,225.96,151.6,225.86,151.08z"/>
		<path class="st0" d="M317.52,151.08c-0.11-0.51-0.24-1.02-0.39-1.52c-0.15-0.49-0.33-0.99-0.53-1.47
			c-0.2-0.48-0.42-0.96-0.67-1.41c-0.24-0.46-0.51-0.92-0.8-1.35c-0.29-0.44-0.6-0.86-0.93-1.26c-0.34-0.41-0.69-0.8-1.06-1.17
			c-0.37-0.37-0.76-0.73-1.17-1.06c-0.4-0.33-0.83-0.64-1.26-0.93c-0.43-0.29-0.89-0.56-1.35-0.81c-0.46-0.24-0.93-0.46-1.41-0.66
			c-0.48-0.2-0.98-0.38-1.48-0.53c-0.49-0.15-1.01-0.28-1.52-0.39c-0.51-0.1-1.03-0.18-1.55-0.23c-1.04-0.1-2.1-0.1-3.15,0
			c-0.52,0.05-1.04,0.13-1.55,0.23c-0.51,0.11-1.02,0.24-1.52,0.39c-0.5,0.15-0.99,0.33-1.47,0.53c-0.48,0.2-0.96,0.42-1.42,0.66
			c-0.46,0.25-0.91,0.52-1.35,0.81c-0.43,0.29-0.86,0.6-1.26,0.93c-0.41,0.33-0.8,0.69-1.17,1.06c-0.37,0.37-0.72,0.76-1.05,1.17
			c-0.33,0.4-0.65,0.82-0.94,1.26c-0.28,0.43-0.55,0.89-0.8,1.35c-0.24,0.45-0.47,0.93-0.67,1.41c-0.2,0.48-0.37,0.98-0.53,1.47
			c-0.15,0.5-0.28,1.01-0.38,1.52c-0.1,0.52-0.18,1.04-0.23,1.56c-0.06,0.52-0.08,1.05-0.08,1.57c0,0.52,0.02,1.05,0.08,1.57
			c0.05,0.52,0.13,1.04,0.23,1.56c0.1,0.51,0.23,1.02,0.38,1.52c0.16,0.49,0.33,0.99,0.53,1.47c0.2,0.48,0.43,0.96,0.67,1.42
			c0.25,0.46,0.52,0.91,0.8,1.34c0.29,0.44,0.61,0.86,0.94,1.27c0.33,0.4,0.68,0.8,1.05,1.17c0.37,0.37,0.77,0.72,1.17,1.05
			c0.41,0.33,0.83,0.65,1.27,0.93c0.43,0.29,0.88,0.56,1.34,0.81c0.46,0.24,0.94,0.47,1.42,0.66c0.48,0.2,0.97,0.38,1.47,0.53
			c0.5,0.16,1.01,0.29,1.52,0.39c0.51,0.1,1.04,0.18,1.55,0.23c0.52,0.05,1.05,0.08,1.58,0.08c0.52,0,1.05-0.03,1.57-0.08
			c0.52-0.05,1.04-0.13,1.55-0.23c0.51-0.1,1.02-0.23,1.52-0.39c0.5-0.15,1-0.33,1.48-0.53c0.48-0.19,0.95-0.42,1.41-0.66
			c0.46-0.25,0.91-0.52,1.35-0.81c0.43-0.28,0.86-0.6,1.26-0.93c0.41-0.33,0.8-0.68,1.17-1.05c0.37-0.37,0.72-0.77,1.06-1.17
			c0.33-0.41,0.64-0.83,0.93-1.27c0.29-0.43,0.56-0.88,0.8-1.34c0.25-0.46,0.47-0.94,0.67-1.42c0.2-0.48,0.38-0.98,0.53-1.47
			c0.15-0.5,0.28-1.01,0.39-1.52c0.1-0.52,0.18-1.04,0.23-1.56c0.05-0.52,0.08-1.05,0.08-1.57c0-0.52-0.03-1.05-0.08-1.57
			C317.7,152.12,317.62,151.6,317.52,151.08z"/>
		<path class="st0" d="M399.86,220.74h-11.79v-42.17c0-26.96-8.13-52.06-22.05-72.98l28.85-28.85c6.25-6.25,6.25-16.38,0-22.63
			c-6.25-6.25-16.38-6.25-22.63,0l-27.1,27.1C321.63,59.67,290.32,46.51,256,46.51s-65.63,13.16-89.13,34.71l-27.1-27.1
			c-6.25-6.25-16.38-6.25-22.63,0c-6.25,6.25-6.25,16.38,0,22.63l28.85,28.85c-13.93,20.92-22.05,46.02-22.05,72.98v42.17h-11.79
			c-46.67,0-84.64,37.97-84.64,84.64V417.9c0,8.84,7.16,16,16,16h52.64v15.59c0,8.84,7.16,16,16,16h287.71c8.84,0,16-7.16,16-16
			V433.9h52.64c8.84,0,16-7.16,16-16V305.38C484.5,258.71,446.53,220.74,399.86,220.74z M155.94,178.57
			c0-55.18,44.89-100.07,100.06-100.07s100.06,44.89,100.06,100.07v42.17H155.94V178.57z M59.5,401.9v-96.52
			c0-23.45,15.41-43.37,36.64-50.16V401.9H59.5z M383.86,433.49H128.14V417.9V252.74h11.79h232.13h11.79V417.9V433.49z M452.5,401.9
			h-36.64V255.22c21.23,6.79,36.64,26.71,36.64,50.16V401.9z"/>
	</g>
</g>
</svg>
