<?xml version="1.0" encoding="utf-8"?>
<!-- Generator: Adobe Illustrator 23.0.1, SVG Export Plug-In . SVG Version: 6.00 Build 0)  -->
<svg version="1.1" xmlns="http://www.w3.org/2000/svg" xmlns:xlink="http://www.w3.org/1999/xlink" x="0px" y="0px"
	 viewBox="0 0 512 512" style="enable-background:new 0 0 512 512;" xml:space="preserve">
<style type="text/css">
	.st0{fill:#333333;}
</style>
<g id="Layer_1">
</g>
<g id="Layer_2">
	<g>
		<path class="st0" d="M51.3,256c0,14.76,7.63,27.97,20.41,35.36c0,0,0,0,0,0l164.08,94.73c6.39,3.69,13.4,5.54,20.42,5.54
			c7.01,0,14.02-1.84,20.41-5.53c12.79-7.38,20.42-20.6,20.42-35.36v-23.78l102.44,59.13c6.39,3.69,13.4,5.54,20.41,5.54
			c7.01,0,14.01-1.84,20.4-5.53c12.78-7.38,20.42-20.6,20.42-35.36V161.27c0-14.76-7.63-27.98-20.42-35.36
			c-12.78-7.38-28.04-7.37-40.81,0.01l-102.44,59.14v-23.78c0-14.76-7.63-27.98-20.42-35.36c-12.78-7.38-28.04-7.38-40.82,0
			L71.71,220.65C58.93,228.03,51.3,241.24,51.3,256z M415.48,153.63c3.98-2.3,7.49-0.77,8.81,0c1.33,0.77,4.41,3.04,4.41,7.65
			v189.46c0,4.6-3.09,6.88-4.41,7.65c-1.32,0.77-4.83,2.29-8.82,0L297.03,290v-68L415.48,153.63z M87.71,248.36l164.08-94.73
			c3.98-2.3,7.5-0.77,8.82,0c1.33,0.77,4.42,3.04,4.42,7.65v51.49v86.48v51.49c0,4.6-3.09,6.88-4.42,7.65
			c-1.33,0.76-4.84,2.3-8.82,0L87.71,263.64l0,0c-3.99-2.3-4.42-6.11-4.42-7.65C83.3,254.47,83.73,250.66,87.71,248.36z"/>
	</g>
</g>
</svg>
