<?xml version="1.0" encoding="utf-8"?>
<!-- Generator: Adobe Illustrator 23.0.1, SVG Export Plug-In . SVG Version: 6.00 Build 0)  -->
<svg version="1.1" xmlns="http://www.w3.org/2000/svg" xmlns:xlink="http://www.w3.org/1999/xlink" x="0px" y="0px"
	 viewBox="0 0 512 512" style="enable-background:new 0 0 512 512;" xml:space="preserve">
<style type="text/css">
	.st0{fill:#333333;}
</style>
<g id="Layer_1">
</g>
<g id="Layer_2">
	<g>
		<path class="st0" d="M459.89,32.58H105.47c-18.52,0-35.94,7.21-49.06,20.32C43.31,66,36.11,83.42,36.11,101.94V403.1
			c0,0.76,0.05,1.51,0.16,2.25c-0.1,1.55-0.16,3.13-0.16,4.71c0,38.25,31.12,69.36,69.36,69.36h354.43c8.84,0,16-7.16,16-16V345.95
			v-89.2V155.3V48.58C475.89,39.74,468.73,32.58,459.89,32.58z M79.03,75.52c7.07-7.06,16.46-10.94,26.44-10.94h338.43v74.72H105.47
			c-20.6,0-37.36-16.76-37.36-37.36C68.11,91.96,71.99,82.57,79.03,75.52z M105.47,447.42c-20.6,0-37.36-16.76-37.36-37.36
			c0-1.67,0.1-3.29,0.31-4.81c0.27-2,0.16-4.01-0.31-5.94V160.35c0.33,0.21,0.67,0.41,1,0.62c0.22,0.14,0.44,0.28,0.67,0.41
			c0.85,0.51,1.71,1.01,2.59,1.49c0.12,0.06,0.24,0.12,0.35,0.19c0.77,0.42,1.55,0.81,2.34,1.2c0.25,0.12,0.51,0.25,0.76,0.37
			c0.77,0.36,1.54,0.72,2.32,1.05c0.15,0.07,0.31,0.14,0.46,0.2c0.93,0.39,1.87,0.76,2.82,1.11c0.23,0.08,0.46,0.16,0.69,0.25
			c0.76,0.27,1.52,0.53,2.29,0.78c0.26,0.08,0.51,0.17,0.77,0.24c0.98,0.3,1.96,0.58,2.95,0.84c0.07,0.02,0.14,0.03,0.21,0.05
			c0.92,0.24,1.86,0.45,2.8,0.65c0.28,0.06,0.56,0.12,0.84,0.17c0.82,0.16,1.65,0.31,2.48,0.44c0.21,0.03,0.42,0.07,0.63,0.1
			c1.02,0.15,2.05,0.28,3.08,0.39c0.24,0.03,0.49,0.04,0.73,0.07c0.83,0.08,1.66,0.14,2.49,0.19c0.3,0.02,0.59,0.04,0.89,0.05
			c1.06,0.05,2.12,0.08,3.19,0.08h338.43v69.44h-131.8c-33.42,0-60.6,27.19-60.6,60.6s27.19,60.6,60.6,60.6h131.8v85.48H105.47z
			 M443.89,329.95h-131.8c-15.77,0-28.6-12.83-28.6-28.6s12.83-28.6,28.6-28.6h131.8V329.95z"/>
	</g>
</g>
</svg>
